<?xml version="1.0" standalone="no"?>
<!DOCTYPE svg PUBLIC "-//W3C//DTD SVG 20010904//EN"
 "http://www.w3.org/TR/2001/REC-SVG-20010904/DTD/svg10.dtd">
<svg version="1.0" xmlns="http://www.w3.org/2000/svg"
 width="1081.000000pt" height="1081.000000pt" viewBox="0 0 1081.000000 1081.000000"
 preserveAspectRatio="xMidYMid meet">
<metadata>
Created by potrace 1.14, written by Peter Selinger 2001-2017
</metadata>
<g transform="translate(0.000000,1081.000000) scale(0.100000,-0.100000)"
fill="#000000" stroke="none">
<path d="M4647 8347 l-1897 -421 2 -590 3 -591 594 -372 594 -373 -54 -24
c-518 -229 -1024 -516 -1369 -775 -487 -367 -739 -736 -692 -1012 40 -234 243
-401 597 -489 253 -64 599 -89 969 -71 215 11 485 34 549 47 l27 6 0 -496 c0
-340 3 -496 11 -496 5 0 202 57 436 126 l426 125 48 -30 49 -30 0 489 c0 317
3 490 10 490 6 0 11 -177 12 -497 l3 -496 438 -269 c241 -147 440 -268 443
-268 2 0 4 400 4 890 0 575 3 890 10 890 6 0 11 -82 13 -212 l2 -213 3 215 2
215 218 73 c119 41 291 103 382 138 154 60 200 72 685 179 286 64 530 119 542
123 20 6 16 12 -45 65 -113 97 -124 108 -120 113 3 2 48 -31 99 -75 l94 -79 5
130 5 131 139 84 c532 321 891 644 1031 928 61 123 79 198 72 308 -4 78 -9 98
-46 172 -109 220 -366 345 -843 410 l-48 6 0 148 0 147 -387 240 -388 241 -5
378 -5 378 -334 209 c-225 140 -343 208 -360 207 -14 -1 -880 -191 -1924 -422z
m3568 -1743 c290 -47 506 -160 565 -296 28 -65 24 -163 -10 -251 -57 -150
-253 -376 -485 -560 -145 -115 -503 -357 -529 -357 -3 0 -7 165 -8 367 l-3
367 -193 124 c-106 69 -191 126 -189 128 2 2 147 35 323 74 175 38 329 72 342
75 22 5 22 7 22 180 l0 174 38 -5 c20 -3 78 -12 127 -20z m-4265 -1768 l0
-973 -62 -7 c-528 -58 -946 -60 -1263 -6 -423 72 -647 239 -607 453 24 128
106 258 271 429 294 306 799 647 1411 955 135 67 246 123 248 123 1 0 2 -438
2 -974z m2185 -211 c121 -76 221 -139 223 -140 3 -3 -203 -78 -360 -131 l-128
-43 0 241 0 240 23 -14 c12 -8 121 -77 242 -153z"/>
<path d="M4398 2796 c-224 -66 -409 -123 -412 -126 -4 -4 855 -547 930 -588
l24 -13 0 398 0 398 -45 28 c-25 15 -56 26 -68 26 -12 -1 -205 -56 -429 -123z"/>
<path d="M4960 2455 c0 -217 1 -395 3 -395 36 5 858 249 859 255 0 7 -746 472
-844 526 -17 9 -18 -12 -18 -386z"/>
</g>
</svg>
