<svg id="Layer_1" data-name="Layer 1" xmlns="http://www.w3.org/2000/svg" xmlns:xlink="http://www.w3.org/1999/xlink" viewBox="0 0 1080 1080"><defs><style>.cls-1{fill:url(#linear-gradient);}.cls-2{fill:url(#linear-gradient-2);}.cls-3{fill:url(#linear-gradient-3);}.cls-4{fill:url(#linear-gradient-4);}.cls-5{fill:url(#linear-gradient-5);}.cls-6{fill:url(#linear-gradient-6);}.cls-7{fill:url(#linear-gradient-7);}.cls-11,.cls-12,.cls-8{fill:none;stroke:#fff;stroke-miterlimit:10;stroke-width:2.09px;}.cls-9{fill:url(#linear-gradient-8);}.cls-10{fill:url(#linear-gradient-9);}.cls-11{opacity:0.15;}.cls-12{opacity:0.3;}.cls-13{fill:url(#linear-gradient-10);}.cls-14{opacity:0.61;}.cls-15{fill:url(#linear-gradient-11);}.cls-16{fill:url(#linear-gradient-12);}</style><linearGradient id="linear-gradient" x1="366.96" y1="272.52" x2="602.12" y2="859.2" gradientUnits="userSpaceOnUse"><stop offset="0" stop-color="#241895"/><stop offset="1" stop-color="#a02768"/></linearGradient><linearGradient id="linear-gradient-2" x1="344.95" y1="166.89" x2="797.95" y2="460.23" gradientUnits="userSpaceOnUse"><stop offset="0" stop-color="#ed424f"/><stop offset="1" stop-color="#f92c5d"/></linearGradient><linearGradient id="linear-gradient-3" x1="685.3" y1="455.4" x2="787.41" y2="850.85" gradientUnits="userSpaceOnUse"><stop offset="0" stop-color="#180d2b"/><stop offset="1" stop-color="#111895"/></linearGradient><linearGradient id="linear-gradient-4" x1="480.53" y1="508.27" x2="582.64" y2="903.72" xlink:href="#linear-gradient-3"/><linearGradient id="linear-gradient-5" x1="473.57" y1="302.76" x2="726.23" y2="302.76" gradientUnits="userSpaceOnUse"><stop offset="0" stop-color="#bb2768"/><stop offset="1" stop-color="#441895"/></linearGradient><linearGradient id="linear-gradient-6" x1="638.13" y1="418.89" x2="804.01" y2="418.89" xlink:href="#linear-gradient-5"/><linearGradient id="linear-gradient-7" x1="743.77" y1="647.76" x2="655.28" y2="536.37" gradientUnits="userSpaceOnUse"><stop offset="0" stop-color="#249f95"/><stop offset="1" stop-color="#004595"/></linearGradient><linearGradient id="linear-gradient-8" x1="525.53" y1="851.3" x2="403.64" y2="697.87" gradientUnits="userSpaceOnUse"><stop offset="0.01" stop-color="#249f95"/><stop offset="0.2" stop-color="#229a95"/><stop offset="0.42" stop-color="#1d8d95"/><stop offset="0.65" stop-color="#147795"/><stop offset="0.88" stop-color="#085895"/><stop offset="1" stop-color="#004595"/></linearGradient><linearGradient id="linear-gradient-9" x1="597.92" y1="840.12" x2="482.86" y2="695.28" gradientUnits="userSpaceOnUse"><stop offset="0.01" stop-color="#244d95"/><stop offset="0.22" stop-color="#224b90"/><stop offset="0.46" stop-color="#1b4483"/><stop offset="0.71" stop-color="#11396d"/><stop offset="0.97" stop-color="#02294e"/><stop offset="1" stop-color="#00274a"/></linearGradient><linearGradient id="linear-gradient-10" x1="366.17" y1="461.18" x2="712.83" y2="653.97" gradientUnits="userSpaceOnUse"><stop offset="0" stop-color="#ff2768"/><stop offset="1" stop-color="#ff862c"/></linearGradient><linearGradient id="linear-gradient-11" x1="397.45" y1="486.27" x2="240.26" y2="578.48" gradientUnits="userSpaceOnUse"><stop offset="0" stop-color="#711e84"/><stop offset="0.99" stop-color="#ff2768"/></linearGradient><linearGradient id="linear-gradient-12" x1="800.5" y1="402.92" x2="887.76" y2="436.34" gradientUnits="userSpaceOnUse"><stop offset="0" stop-color="#ab208d"/><stop offset="0.04" stop-color="#b22985"/><stop offset="0.22" stop-color="#ce4a65"/><stop offset="0.41" stop-color="#e3644c"/><stop offset="0.59" stop-color="#f3773a"/><stop offset="0.79" stop-color="#fc822f"/><stop offset="1" stop-color="#ff862c"/></linearGradient></defs><polygon class="cls-1" points="274.77 288.79 655.31 520.58 655.31 644.48 494.44 543.57 494.44 876 394.98 813.73 394.98 481.18 274.77 405.77 274.77 288.79"/><polygon class="cls-2" points="658.09 204 726.23 246.43 473.57 303.26 561.33 359.09 725.5 321.05 804.01 369.76 638.13 406.45 774.21 494.49 655.31 520.58 274.77 288.79 658.09 204"/><polygon class="cls-3" points="655.31 520.58 774.21 494.49 774.21 618.2 655.31 644.48 655.31 520.58"/><polygon class="cls-4" points="494.44 876 585.42 850.05 585.42 600.63 494.44 543.57 494.44 876"/><polygon class="cls-5" points="726.23 321.58 726.23 246.43 473.57 303.26 561.33 359.09 726.23 321.58"/><polygon class="cls-6" points="733.35 468.03 804.01 452.53 804.01 369.76 638.13 406.45 733.35 468.03"/><polygon class="cls-7" points="774.21 577.67 774.21 618.2 655.29 644.79 655.83 633.83 774.21 577.67"/><polyline class="cls-8" points="774.21 586.03 774.21 618.2 655.31 644.48"/><polygon class="cls-9" points="394.98 813.73 395.45 704.38 494.77 685.82 494.44 876 394.98 813.73"/><polygon class="cls-10" points="494.44 876 494.77 685.82 586.67 659.83 585.42 850.05 494.44 876"/><path class="cls-8" d="M585.17,849.9,483.53,787.68a.12.12,0,0,0-.1,0l-88.18,26a.13.13,0,0,0,0,.23L494.39,876a.14.14,0,0,0,.11,0l90.64-25.85A.13.13,0,0,0,585.17,849.9Z"/><line class="cls-8" x1="494.44" y1="876" x2="494.44" y2="685.82"/><line class="cls-8" x1="395.23" y1="813.8" x2="395.23" y2="704.38"/><line class="cls-8" x1="585.56" y1="851.25" x2="585.56" y2="664.93"/><line class="cls-8" x1="774.21" y1="618.2" x2="748.66" y2="596.24"/><polygon class="cls-11" points="585.42 750.03 483.48 687.63 394.98 713.71 494.44 775.98 585.42 750.03"/><polygon class="cls-11" points="585.42 799.14 483.48 736.73 394.98 762.81 494.44 825.08 585.42 799.14"/><line class="cls-12" x1="483.48" y1="787.65" x2="483.48" y2="687.63"/><path class="cls-13" d="M814,564c-12.29,8.35-25.61,16.67-39.81,24.77C739.75,608.47,700.07,627.18,657,644.1c-.54.25-1.13.46-1.67.67-3.22,1.29-6.48,2.55-9.73,3.8C626.09,656,606,663,585.4,669.58c-3.26,1-6.47,2-9.73,3-27.4,8.52-54.64,15.92-81.25,22.1A951.48,951.48,0,0,1,395,712.82a638,638,0,0,1-77.24,5.34h-2c-76,0-121.6-17.25-131.75-50-18.09-58.31,92.32-135.68,211-187v18C277.2,553.12,189.27,625,201.09,662.9c10,32.2,83.72,46.32,193.87,32.12a949.16,949.16,0,0,0,99.46-18.59q36.54-8.7,75.95-20.93,7.57-2.37,15-4.76,21.18-6.88,41.07-14.16c3.42-1.25,6.85-2.51,10.19-3.8,6.31-2.34,12.53-4.72,18.63-7.19,46-18.21,86-37.76,118.93-57.22,74.77-44.2,113.28-88.06,104.59-116-5.68-18.29-32.37-30.28-74.81-34.71V399.56c52,5.22,83.75,21.22,91.94,47.5C906.18,480.06,877.85,520.49,814,564Z"/><g class="cls-14"><path class="cls-15" d="M248.89,587.5c35.24-29.58,86.88-61.22,146.07-88.35v-18C335.66,506.84,278.43,539,238.26,572A60.15,60.15,0,0,1,248.89,587.5Z"/><path class="cls-16" d="M872.7,442A138.88,138.88,0,0,1,889,433.6c-13.66-18.34-42.57-29.78-85-34v18.09C837.77,421.17,861.53,429.5,872.7,442Z"/></g><path class="cls-13" d="M814,564c-12.29,8.35-25.61,16.67-39.81,24.77C739.75,608.47,700.07,627.18,657,644.1c-.54.25-1.13.46-1.67.67-3.22,1.29-6.48,2.55-9.73,3.8C626.09,656,606,663,585.4,669.58c-3.26,1-6.47,2-9.73,3-27.4,8.52-54.64,15.92-81.25,22.1A951.48,951.48,0,0,1,395,712.82a638,638,0,0,1-77.24,5.34h-2c-76,0-121.6-17.25-131.75-50-18.09-58.31,92.32-135.68,211-187v18C277.2,553.12,189.27,625,201.09,662.9c10,32.2,83.72,46.32,193.87,32.12a949.16,949.16,0,0,0,99.46-18.59q36.54-8.7,75.95-20.93,7.57-2.37,15-4.76,21.18-6.88,41.07-14.16c3.42-1.25,6.85-2.51,10.19-3.8,6.31-2.34,12.53-4.72,18.63-7.19,46-18.21,86-37.76,118.93-57.22,74.77-44.2,113.28-88.06,104.59-116-5.68-18.29-32.37-30.28-74.81-34.71V399.56c52,5.22,83.75,21.22,91.94,47.5C906.18,480.06,877.85,520.49,814,564Z"/><g class="cls-14"><path class="cls-15" d="M248.89,587.5c35.24-29.58,86.88-61.22,146.07-88.35v-18C335.66,506.84,278.43,539,238.26,572A60.15,60.15,0,0,1,248.89,587.5Z"/><path class="cls-16" d="M872.7,442A138.88,138.88,0,0,1,889,433.6c-13.66-18.34-42.57-29.78-85-34v18.09C837.77,421.17,861.53,429.5,872.7,442Z"/></g></svg>